<?xml version="1.0" encoding="UTF-8" standalone="no"?>
<!-- Created with Inkscape (http://www.inkscape.org/) -->

<svg
   xmlns:dc="http://purl.org/dc/elements/1.1/"
   xmlns:cc="http://creativecommons.org/ns#"
   xmlns:rdf="http://www.w3.org/1999/02/22-rdf-syntax-ns#"
   xmlns:svg="http://www.w3.org/2000/svg"
   xmlns="http://www.w3.org/2000/svg"
   xmlns:sodipodi="http://sodipodi.sourceforge.net/DTD/sodipodi-0.dtd"
   xmlns:inkscape="http://www.inkscape.org/namespaces/inkscape"
   version="1.1"
   id="svg2"
   xml:space="preserve"
   width="1889.76"
   height="1888.6667"
   viewBox="0 0 1889.76 1888.6667"
   sodipodi:docname="crab.svg"
   inkscape:version="0.92.3 (2405546, 2018-03-11)"><metadata
     id="metadata8"><rdf:RDF><cc:Work
         rdf:about=""><dc:format>image/svg+xml</dc:format><dc:type
           rdf:resource="http://purl.org/dc/dcmitype/StillImage" /><dc:title></dc:title></cc:Work></rdf:RDF></metadata><defs
     id="defs6" /><sodipodi:namedview
     pagecolor="#ffffff"
     bordercolor="#666666"
     borderopacity="1"
     objecttolerance="10"
     gridtolerance="10"
     guidetolerance="10"
     inkscape:pageopacity="0"
     inkscape:pageshadow="2"
     inkscape:window-width="1920"
     inkscape:window-height="1056"
     id="namedview4"
     showgrid="false"
     inkscape:zoom="0.24991174"
     inkscape:cx="93.471938"
     inkscape:cy="1248.6328"
     inkscape:window-x="1600"
     inkscape:window-y="0"
     inkscape:window-maximized="1"
     inkscape:current-layer="g884" /><g
     id="g10"
     inkscape:groupmode="layer"
     inkscape:label="ink_ext_XXXXXX"
     transform="matrix(1.3333333,0,0,-1.3333333,0,1888.6667)" /><g
     inkscape:groupmode="layer"
     id="layer2"
     inkscape:label="ink_ext_XXXXXX 2" /><g
     inkscape:groupmode="layer"
     id="layer1"
     inkscape:label="ink_ext_XXXXXX 1"><g
       id="g884"
       transform="matrix(2.5336951,0,0,2.5336951,-1447.119,-1459.2008)"><path
         d="m 906.877,638.506 c 36.435,0 66.072,29.637 66.072,66.072 v 22.024 c 0,8.109 -6.574,14.682 -14.682,14.682 -8.11,0 -14.683,-6.573 -14.683,-14.682 v -22.024 c 0,-20.272 -16.435,-36.707 -36.707,-36.707 h -26.398 c -5.512,18.221 -16.041,35.012 -30.445,49.511 10.22,8.999 18.163,20.527 22.818,33.61 58.471,11.493 92.755,63.289 92.755,115.095 0,58.731 -44.047,73.414 -44.047,73.414 0,-44.048 -29.366,-73.414 -29.366,-73.414 v 58.731 C 818.78,910.135 818.78,807.357 818.78,777.991 c 0,-12.144 -9.879,-22.024 -22.023,-22.024 h -7.312 c -9.6,3.723 -19.718,6.797 -30.249,9.157 3.91,10.153 6.902,22.857 7.86,38.649 8.957,5.03 15.018,14.605 15.018,25.608 0,16.217 -13.148,29.365 -29.365,29.365 -16.218,0 -29.366,-13.148 -29.366,-29.365 0,-10.706 5.749,-20.047 14.309,-25.178 -1.111,-15.689 -4.635,-26.777 -8.513,-34.447 -6.72,0.584 -13.55,0.894 -20.479,0.894 -6.929,0 -13.759,-0.31 -20.478,-0.894 -3.878,7.67 -7.403,18.758 -8.514,34.447 8.561,5.131 14.31,14.472 14.31,25.178 0,16.217 -13.149,29.365 -29.366,29.365 -16.217,0 -29.365,-13.148 -29.365,-29.365 0,-11.003 6.062,-20.578 15.018,-25.608 0.958,-15.792 3.948,-28.496 7.859,-38.649 -10.53,-2.36 -20.647,-5.434 -30.249,-9.157 h -14.652 c -12.145,0 -22.024,9.88 -22.024,22.024 0,29.366 0,132.144 -73.414,146.827 v -58.731 c 0,0 -29.365,29.366 -29.365,73.414 0,0 -44.048,-14.683 -44.048,-73.414 0,-51.805 34.284,-103.602 92.756,-115.095 5.259,-14.784 14.712,-27.592 26.914,-36.997 C 551.3,700.29 541.93,684.692 536.841,667.871 h -26.397 c -20.273,0 -36.707,16.435 -36.707,36.707 v 22.024 c 0,8.109 -6.574,14.682 -14.682,14.682 -8.11,0 -14.683,-6.573 -14.683,-14.682 v -22.024 c 0,-36.49 29.581,-66.072 66.072,-66.072 h 22.024 c 0,-10.094 1.515,-19.92 4.373,-29.366 h -26.397 c -36.491,0 -66.072,-29.581 -66.072,-66.072 v -22.024 c 0,-8.109 6.573,-14.683 14.683,-14.683 8.108,0 14.682,6.574 14.682,14.683 v 22.024 c 0,20.273 16.434,36.707 36.707,36.707 h 40.352 c 4.054,-6.118 8.715,-11.97 13.935,-17.505 -27.162,-8.203 -46.946,-33.412 -46.946,-63.25 v -7.341 c 0,-8.109 6.573,-14.683 14.683,-14.683 8.109,0 14.682,6.574 14.682,14.683 v 7.341 c 0,20.273 16.435,36.707 36.707,36.707 h 14.068 c 30.259,-18.361 68.78,-29.366 110.735,-29.366 41.955,0 80.477,11.005 110.736,29.366 h 14.068 c 20.271,0 36.706,-16.434 36.706,-36.707 v -7.341 c 0,-8.109 6.573,-14.683 14.683,-14.683 v 0 c 8.109,0 14.682,6.574 14.682,14.683 v 7.341 c 0,29.838 -19.784,55.047 -46.946,63.25 5.221,5.535 9.882,11.387 13.935,17.505 h 40.353 c 20.272,0 36.707,-16.434 36.707,-36.707 v -22.024 c 0,-8.109 6.573,-14.683 14.683,-14.683 8.108,0 14.682,6.574 14.682,14.683 v 22.024 c 0,36.491 -29.582,66.072 -66.072,66.072 h -26.398 c 2.859,9.446 4.374,19.272 4.374,29.366 h 22.024"
         style="fill:#ff6a13;fill-opacity:1;fill-rule:nonzero;stroke:#000000;stroke-width:11.84041472;stroke-miterlimit:4;stroke-dasharray:none;stroke-opacity:1"
         id="path14"
         inkscape:connector-curvature="0"
         transform="matrix(1.3333333,0,0,-1.3333333,0,1888.6667)" /><ellipse
         ry="167.84055"
         rx="230.14659"
         cy="1037.1593"
         cx="945.19232"
         id="path873"
         style="opacity:1;fill:#ffffff;fill-opacity:0.1280788;fill-rule:nonzero;stroke:none;stroke-width:10.36873913;stroke-linecap:round;stroke-linejoin:bevel;stroke-miterlimit:4;stroke-dasharray:none;stroke-opacity:1;paint-order:stroke markers fill" /><circle
         r="32.53653"
         cy="782.92102"
         cx="1003.4596"
         id="path823-6-7"
         style="opacity:1;fill:#ffffff;fill-opacity:1;fill-rule:nonzero;stroke:none;stroke-width:22.99868202;stroke-linecap:round;stroke-linejoin:bevel;stroke-miterlimit:4;stroke-dasharray:none;stroke-opacity:1;paint-order:stroke markers fill" /><circle
         r="32.141708"
         cy="782.92108"
         cx="885.98413"
         id="path823-6"
         style="opacity:1;fill:#ffffff;fill-opacity:1;fill-rule:nonzero;stroke:none;stroke-width:22.71960068;stroke-linecap:round;stroke-linejoin:bevel;stroke-miterlimit:4;stroke-dasharray:none;stroke-opacity:1;paint-order:stroke markers fill" /><circle
         r="10.964025"
         cy="774.16602"
         cx="899.04468"
         id="path823"
         style="opacity:1;fill:#000000;fill-opacity:1;fill-rule:nonzero;stroke:none;stroke-width:7.75;stroke-linecap:round;stroke-linejoin:bevel;stroke-miterlimit:4;stroke-dasharray:none;stroke-opacity:1;paint-order:stroke markers fill" /><circle
         r="10.964025"
         cy="772.50726"
         cx="1015.6328"
         id="path823-3"
         style="opacity:1;fill:#000000;fill-opacity:1;fill-rule:nonzero;stroke:none;stroke-width:7.75;stroke-linecap:round;stroke-linejoin:bevel;stroke-miterlimit:4;stroke-dasharray:none;stroke-opacity:1;paint-order:stroke markers fill" /><path
         sodipodi:nodetypes="cc"
         inkscape:connector-curvature="0"
         id="path870"
         d="m 887.81342,905.06951 c 22.14845,17.63886 81.21347,31.72948 126.04448,-1.00035"
         style="fill:none;stroke:#000000;stroke-width:15.78721923;stroke-linecap:round;stroke-linejoin:miter;stroke-miterlimit:4;stroke-dasharray:none;stroke-opacity:1" /><ellipse
         ry="86.989906"
         rx="127.61529"
         cy="1090.8527"
         cx="882.00629"
         id="path873-5"
         style="opacity:1;fill:#ffffff;fill-opacity:0.1280788;fill-rule:nonzero;stroke:none;stroke-width:5.55854368;stroke-linecap:round;stroke-linejoin:bevel;stroke-miterlimit:4;stroke-dasharray:none;stroke-opacity:1;paint-order:stroke markers fill" /><ellipse
         ry="58.957695"
         rx="19.039825"
         cy="735.82007"
         cx="629.18811"
         id="path873-5-3"
         style="opacity:1;fill:#ffffff;fill-opacity:0.1280788;fill-rule:nonzero;stroke:none;stroke-width:1.76757145;stroke-linecap:round;stroke-linejoin:bevel;stroke-miterlimit:4;stroke-dasharray:none;stroke-opacity:1;paint-order:stroke markers fill" /><ellipse
         ry="58.957699"
         rx="19.039825"
         cy="298.01334"
         cx="1332.3213"
         id="path873-5-3-5"
         style="opacity:1;fill:#ffffff;fill-opacity:0.1280788;fill-rule:nonzero;stroke:none;stroke-width:1.76757145;stroke-linecap:round;stroke-linejoin:bevel;stroke-miterlimit:4;stroke-dasharray:none;stroke-opacity:1;paint-order:stroke markers fill"
         transform="rotate(20.616812)" /></g></g></svg>